<svg width="148" height="46" viewBox="0 0 148 46" fill="none" xmlns="http://www.w3.org/2000/svg">
<path d="M1.92215 41.7449V35.3238H0.75282V34.346H1.92215V33.5869C1.92215 32.7937 2.13413 32.1805 2.5581 31.7474C2.98207 31.3144 3.58155 31.0978 4.35654 31.0978C4.64831 31.0978 4.93779 31.1366 5.22499 31.2141L5.15661 32.2398C4.94235 32.1988 4.71441 32.1783 4.47279 32.1783C4.0625 32.1783 3.74567 32.2991 3.52228 32.5407C3.2989 32.7777 3.18721 33.1196 3.18721 33.5664V34.346H4.76683V35.3238H3.18721V41.7449H1.92215ZM5.83359 37.977C5.83359 37.2522 5.97491 36.6003 6.25756 36.0213C6.54476 35.4423 6.94138 34.9956 7.4474 34.681C7.95799 34.3665 8.53923 34.2092 9.19114 34.2092C10.1986 34.2092 11.0124 34.5579 11.6324 35.2554C12.2569 35.9529 12.5692 36.8806 12.5692 38.0386V38.1275C12.5692 38.8478 12.4302 39.4951 12.1521 40.0695C11.8785 40.6394 11.4842 41.0838 10.9691 41.403C10.4585 41.7221 9.8704 41.8816 9.20481 41.8816C8.20188 41.8816 7.38814 41.5329 6.76358 40.8354C6.14359 40.1379 5.83359 39.2147 5.83359 38.0659V37.977ZM7.10549 38.1275C7.10549 38.9481 7.29468 39.6068 7.67306 40.1037C8.056 40.6006 8.56658 40.8491 9.20481 40.8491C9.8476 40.8491 10.3582 40.5983 10.7366 40.0969C11.1149 39.5908 11.3041 38.8842 11.3041 37.977C11.3041 37.1656 11.1104 36.5091 10.7229 36.0076C10.34 35.5016 9.82937 35.2486 9.19114 35.2486C8.56658 35.2486 8.06284 35.4971 7.6799 35.994C7.29696 36.4909 7.10549 37.202 7.10549 38.1275ZM17.732 35.4811C17.5406 35.4492 17.3331 35.4332 17.1098 35.4332C16.2801 35.4332 15.717 35.7865 15.4207 36.4931V41.7449H14.1557V34.346H15.3865L15.407 35.2007C15.8219 34.5397 16.41 34.2092 17.1713 34.2092C17.4175 34.2092 17.6044 34.2411 17.732 34.3049V35.4811ZM22.5735 41.7449V31.7885H25.8284C26.9089 31.7885 27.7203 32.0119 28.2628 32.4586C28.8099 32.9054 29.0834 33.5664 29.0834 34.4417C29.0834 34.9067 28.9512 35.3193 28.6868 35.6794C28.4224 36.035 28.0622 36.3108 27.6064 36.5068C28.1443 36.6573 28.5683 36.9445 28.8783 37.3684C29.1928 37.7878 29.3501 38.2893 29.3501 38.8728C29.3501 39.7664 29.0606 40.4684 28.4817 40.979C27.9027 41.4896 27.0844 41.7449 26.0267 41.7449H22.5735ZM23.8864 37.0881V40.6713H26.0541C26.665 40.6713 27.1459 40.514 27.497 40.1994C27.8525 39.8803 28.0303 39.4427 28.0303 38.8865C28.0303 37.6876 27.3784 37.0881 26.0746 37.0881H23.8864ZM23.8864 36.035H25.8695C26.4439 36.035 26.902 35.8914 27.2439 35.6042C27.5904 35.317 27.7636 34.9272 27.7636 34.4349C27.7636 33.8878 27.6041 33.4912 27.285 33.245C26.9659 32.9943 26.4803 32.8689 25.8284 32.8689H23.8864V36.035ZM35.6686 41.0132C35.1762 41.5922 34.4537 41.8816 33.5009 41.8816C32.7122 41.8816 32.1104 41.6537 31.6956 41.1978C31.2853 40.7374 31.0779 40.0581 31.0733 39.16V34.346H32.3384V39.1258C32.3384 40.2473 32.7943 40.808 33.706 40.808C34.6725 40.808 35.3153 40.4479 35.6344 39.7276V34.346H36.8995V41.7449H35.6959L35.6686 41.0132ZM43.1359 39.7823C43.1359 39.4404 43.006 39.176 42.7461 38.9891C42.4908 38.7976 42.0418 38.6335 41.399 38.4967C40.7608 38.36 40.2524 38.1959 39.8741 38.0044C39.5002 37.8129 39.2222 37.585 39.0398 37.3206C38.862 37.0562 38.7731 36.7416 38.7731 36.3769C38.7731 35.7706 39.0284 35.2577 39.539 34.8383C40.0541 34.4189 40.7106 34.2092 41.5084 34.2092C42.3472 34.2092 43.0265 34.4257 43.5462 34.8588C44.0704 35.2919 44.3326 35.8458 44.3326 36.5205H43.0607C43.0607 36.174 42.9125 35.8754 42.6162 35.6247C42.3244 35.374 41.9552 35.2486 41.5084 35.2486C41.048 35.2486 40.6878 35.3489 40.428 35.5495C40.1681 35.7501 40.0382 36.0122 40.0382 36.3359C40.0382 36.6413 40.159 36.8715 40.4006 37.0265C40.6422 37.1815 41.0776 37.3297 41.7067 37.471C42.3404 37.6123 42.8532 37.781 43.2453 37.977C43.6373 38.1731 43.9268 38.4101 44.1137 38.6882C44.3052 38.9617 44.4009 39.2968 44.4009 39.6934C44.4009 40.3544 44.1365 40.8855 43.6077 41.2867C43.0789 41.6833 42.3928 41.8816 41.5494 41.8816C40.9568 41.8816 40.4325 41.7768 39.9766 41.5671C39.5208 41.3574 39.1629 41.0656 38.903 40.6918C38.6478 40.3134 38.5201 39.9054 38.5201 39.4678H39.7852C39.808 39.8917 39.9766 40.2291 40.2912 40.4798C40.6103 40.726 41.0297 40.8491 41.5494 40.8491C42.0281 40.8491 42.411 40.7533 42.6982 40.5619C42.99 40.3658 43.1359 40.106 43.1359 39.7823ZM47.4234 41.7449H46.1584V34.346H47.4234V41.7449ZM46.0558 32.3834C46.0558 32.1783 46.1173 32.005 46.2404 31.8637C46.3681 31.7224 46.555 31.6517 46.8011 31.6517C47.0473 31.6517 47.2342 31.7224 47.3619 31.8637C47.4895 32.005 47.5533 32.1783 47.5533 32.3834C47.5533 32.5885 47.4895 32.7595 47.3619 32.8963C47.2342 33.033 47.0473 33.1014 46.8011 33.1014C46.555 33.1014 46.3681 33.033 46.2404 32.8963C46.1173 32.7595 46.0558 32.5885 46.0558 32.3834ZM50.651 34.346L50.6921 35.276C51.2574 34.5648 51.9959 34.2092 52.9076 34.2092C54.4713 34.2092 55.26 35.0913 55.2737 36.8556V41.7449H54.0086V36.8487C54.004 36.3154 53.8809 35.921 53.6393 35.6657C53.4023 35.4104 53.0307 35.2828 52.5247 35.2828C52.1144 35.2828 51.7543 35.3922 51.4443 35.611C51.1343 35.8298 50.8927 36.117 50.7194 36.4726V41.7449H49.4544V34.346H50.651ZM60.2519 41.8816C59.2489 41.8816 58.4329 41.5534 57.8038 40.8969C57.1747 40.2359 56.8601 39.3538 56.8601 38.2506V38.0181C56.8601 37.2841 56.9992 36.6299 57.2772 36.0555C57.5599 35.4765 57.9519 35.0252 58.4534 34.7015C58.9594 34.3733 59.5065 34.2092 60.0946 34.2092C61.0565 34.2092 61.8041 34.526 62.3375 35.1597C62.8709 35.7934 63.1376 36.7006 63.1376 37.8813V38.4078H58.1252C58.1434 39.1372 58.3554 39.7276 58.7611 40.1789C59.1714 40.6257 59.6911 40.8491 60.3202 40.8491C60.767 40.8491 61.1454 40.7579 61.4554 40.5755C61.7654 40.3932 62.0366 40.1516 62.2691 39.8507L63.0418 40.4525C62.4218 41.4052 61.4918 41.8816 60.2519 41.8816ZM60.0946 35.2486C59.584 35.2486 59.1555 35.4355 58.809 35.8093C58.4625 36.1786 58.2483 36.6983 58.1662 37.3684H61.8725V37.2727C61.836 36.6299 61.6628 36.133 61.3528 35.782C61.0428 35.4264 60.6234 35.2486 60.0946 35.2486ZM68.9158 39.7823C68.9158 39.4404 68.7859 39.176 68.5261 38.9891C68.2708 38.7976 67.8217 38.6335 67.1789 38.4967C66.5407 38.36 66.0324 38.1959 65.654 38.0044C65.2802 37.8129 65.0021 37.585 64.8198 37.3206C64.642 37.0562 64.5531 36.7416 64.5531 36.3769C64.5531 35.7706 64.8084 35.2577 65.3189 34.8383C65.8341 34.4189 66.4906 34.2092 67.2883 34.2092C68.1272 34.2092 68.8064 34.4257 69.3261 34.8588C69.8504 35.2919 70.1125 35.8458 70.1125 36.5205H68.8406C68.8406 36.174 68.6924 35.8754 68.3961 35.6247C68.1044 35.374 67.7351 35.2486 67.2883 35.2486C66.8279 35.2486 66.4678 35.3489 66.2079 35.5495C65.9481 35.7501 65.8181 36.0122 65.8181 36.3359C65.8181 36.6413 65.9389 36.8715 66.1806 37.0265C66.4222 37.1815 66.8575 37.3297 67.4866 37.471C68.1203 37.6123 68.6332 37.781 69.0252 37.977C69.4173 38.1731 69.7068 38.4101 69.8937 38.6882C70.0852 38.9617 70.1809 39.2968 70.1809 39.6934C70.1809 40.3544 69.9165 40.8855 69.3877 41.2867C68.8588 41.6833 68.1727 41.8816 67.3294 41.8816C66.7367 41.8816 66.2125 41.7768 65.7566 41.5671C65.3007 41.3574 64.9428 41.0656 64.683 40.6918C64.4277 40.3134 64.3001 39.9054 64.3001 39.4678H65.5651C65.5879 39.8917 65.7566 40.2291 66.0711 40.4798C66.3903 40.726 66.8097 40.8491 67.3294 40.8491C67.808 40.8491 68.191 40.7533 68.4782 40.5619C68.7699 40.3658 68.9158 40.106 68.9158 39.7823ZM76.137 39.7823C76.137 39.4404 76.007 39.176 75.7472 38.9891C75.4919 38.7976 75.0428 38.6335 74.4001 38.4967C73.7618 38.36 73.2535 38.1959 72.8751 38.0044C72.5013 37.8129 72.2232 37.585 72.0409 37.3206C71.8631 37.0562 71.7742 36.7416 71.7742 36.3769C71.7742 35.7706 72.0295 35.2577 72.5401 34.8383C73.0552 34.4189 73.7117 34.2092 74.5095 34.2092C75.3483 34.2092 76.0275 34.4257 76.5472 34.8588C77.0715 35.2919 77.3336 35.8458 77.3336 36.5205H76.0617C76.0617 36.174 75.9136 35.8754 75.6173 35.6247C75.3255 35.374 74.9562 35.2486 74.5095 35.2486C74.049 35.2486 73.6889 35.3489 73.429 35.5495C73.1692 35.7501 73.0393 36.0122 73.0393 36.3359C73.0393 36.6413 73.1601 36.8715 73.4017 37.0265C73.6433 37.1815 74.0787 37.3297 74.7078 37.471C75.3414 37.6123 75.8543 37.781 76.2464 37.977C76.6384 38.1731 76.9279 38.4101 77.1148 38.6882C77.3063 38.9617 77.402 39.2968 77.402 39.6934C77.402 40.3544 77.1376 40.8855 76.6088 41.2867C76.08 41.6833 75.3939 41.8816 74.5505 41.8816C73.9579 41.8816 73.4336 41.7768 72.9777 41.5671C72.5218 41.3574 72.164 41.0656 71.9041 40.6918C71.6488 40.3134 71.5212 39.9054 71.5212 39.4678H72.7862C72.809 39.8917 72.9777 40.2291 73.2923 40.4798C73.6114 40.726 74.0308 40.8491 74.5505 40.8491C75.0292 40.8491 75.4121 40.7533 75.6993 40.5619C75.9911 40.3658 76.137 40.106 76.137 39.7823ZM88.35 37.1428H84.0351V40.6713H89.0474V41.7449H82.7221V31.7885H88.9791V32.8689H84.0351V36.0692H88.35V37.1428ZM91.6733 34.346L91.7075 35.1665C92.25 34.5283 92.9817 34.2092 93.9026 34.2092C94.9374 34.2092 95.6417 34.6058 96.0156 35.399C96.2617 35.0435 96.5808 34.7562 96.9729 34.5374C97.3695 34.3186 97.8368 34.2092 98.3747 34.2092C99.9977 34.2092 100.823 35.0685 100.85 36.7872V41.7449H99.5851V36.8624C99.5851 36.3336 99.4643 35.9393 99.2227 35.6794C98.981 35.415 98.5753 35.2828 98.0055 35.2828C97.5359 35.2828 97.1461 35.4241 96.8361 35.7068C96.5261 35.9848 96.3461 36.3609 96.2959 36.8351V41.7449H95.024V36.8966C95.024 35.8207 94.4975 35.2828 93.4444 35.2828C92.6147 35.2828 92.0471 35.6361 91.7417 36.3427V41.7449H90.4766V34.346H91.6733ZM109.015 38.1275C109.015 39.2535 108.757 40.1607 108.242 40.8491C107.727 41.5374 107.03 41.8816 106.15 41.8816C105.252 41.8816 104.545 41.5967 104.03 41.0269V44.5896H102.765V34.346H103.92L103.982 35.1665C104.497 34.5283 105.213 34.2092 106.129 34.2092C107.018 34.2092 107.72 34.5443 108.235 35.2144C108.755 35.8845 109.015 36.8168 109.015 38.0112V38.1275ZM107.75 37.9839C107.75 37.1496 107.572 36.4909 107.216 36.0076C106.861 35.5244 106.373 35.2828 105.753 35.2828C104.987 35.2828 104.413 35.6224 104.03 36.3017V39.837C104.408 40.5117 104.987 40.8491 105.767 40.8491C106.373 40.8491 106.854 40.6097 107.21 40.1311C107.57 39.6478 107.75 38.9321 107.75 37.9839ZM112.003 41.7449H110.738V31.2414H112.003V41.7449ZM113.699 37.977C113.699 37.2522 113.84 36.6003 114.123 36.0213C114.41 35.4423 114.807 34.9956 115.313 34.681C115.823 34.3665 116.405 34.2092 117.057 34.2092C118.064 34.2092 118.878 34.5579 119.498 35.2554C120.122 35.9529 120.435 36.8806 120.435 38.0386V38.1275C120.435 38.8478 120.296 39.4951 120.018 40.0695C119.744 40.6394 119.35 41.0838 118.835 41.403C118.324 41.7221 117.736 41.8816 117.07 41.8816C116.067 41.8816 115.254 41.5329 114.629 40.8354C114.009 40.1379 113.699 39.2147 113.699 38.0659V37.977ZM114.971 38.1275C114.971 38.9481 115.16 39.6068 115.539 40.1037C115.922 40.6006 116.432 40.8491 117.07 40.8491C117.713 40.8491 118.224 40.5983 118.602 40.0969C118.98 39.5908 119.17 38.8842 119.17 37.977C119.17 37.1656 118.976 36.5091 118.588 36.0076C118.205 35.5016 117.695 35.2486 117.057 35.2486C116.432 35.2486 115.928 35.4971 115.545 35.994C115.162 36.4909 114.971 37.202 114.971 38.1275ZM124.332 39.8917L126.056 34.346H127.41L124.435 42.8868C123.975 44.1177 123.243 44.7332 122.24 44.7332L122.001 44.7126L121.529 44.6237V43.598L121.871 43.6254C122.299 43.6254 122.632 43.5388 122.869 43.3655C123.111 43.1923 123.309 42.8755 123.464 42.415L123.744 41.6628L121.105 34.346H122.486L124.332 39.8917ZM131.519 41.8816C130.516 41.8816 129.7 41.5534 129.071 40.8969C128.442 40.2359 128.128 39.3538 128.128 38.2506V38.0181C128.128 37.2841 128.267 36.6299 128.545 36.0555C128.827 35.4765 129.219 35.0252 129.721 34.7015C130.227 34.3733 130.774 34.2092 131.362 34.2092C132.324 34.2092 133.072 34.526 133.605 35.1597C134.138 35.7934 134.405 36.7006 134.405 37.8813V38.4078H129.393C129.411 39.1372 129.623 39.7276 130.029 40.1789C130.439 40.6257 130.959 40.8491 131.588 40.8491C132.035 40.8491 132.413 40.7579 132.723 40.5755C133.033 40.3932 133.304 40.1516 133.537 39.8507L134.309 40.4525C133.689 41.4052 132.759 41.8816 131.519 41.8816ZM131.362 35.2486C130.852 35.2486 130.423 35.4355 130.077 35.8093C129.73 36.1786 129.516 36.6983 129.434 37.3684H133.14V37.2727C133.104 36.6299 132.93 36.133 132.62 35.782C132.31 35.4264 131.891 35.2486 131.362 35.2486ZM139.452 35.4811C139.26 35.4492 139.053 35.4332 138.829 35.4332C138 35.4332 137.437 35.7865 137.14 36.4931V41.7449H135.875V34.346H137.106L137.127 35.2007C137.542 34.5397 138.13 34.2092 138.891 34.2092C139.137 34.2092 139.324 34.2411 139.452 34.3049V35.4811ZM144.929 39.7823C144.929 39.4404 144.799 39.176 144.539 38.9891C144.284 38.7976 143.835 38.6335 143.192 38.4967C142.554 38.36 142.046 38.1959 141.667 38.0044C141.293 37.8129 141.015 37.585 140.833 37.3206C140.655 37.0562 140.566 36.7416 140.566 36.3769C140.566 35.7706 140.822 35.2577 141.332 34.8383C141.847 34.4189 142.504 34.2092 143.302 34.2092C144.14 34.2092 144.82 34.4257 145.339 34.8588C145.864 35.2919 146.126 35.8458 146.126 36.5205H144.854C144.854 36.174 144.706 35.8754 144.409 35.6247C144.118 35.374 143.748 35.2486 143.302 35.2486C142.841 35.2486 142.481 35.3489 142.221 35.5495C141.961 35.7501 141.831 36.0122 141.831 36.3359C141.831 36.6413 141.952 36.8715 142.194 37.0265C142.435 37.1815 142.871 37.3297 143.5 37.471C144.134 37.6123 144.646 37.781 145.038 37.977C145.431 38.1731 145.72 38.4101 145.907 38.6882C146.098 38.9617 146.194 39.2968 146.194 39.6934C146.194 40.3544 145.93 40.8855 145.401 41.2867C144.872 41.6833 144.186 41.8816 143.343 41.8816C142.75 41.8816 142.226 41.7768 141.77 41.5671C141.314 41.3574 140.956 41.0656 140.696 40.6918C140.441 40.3134 140.313 39.9054 140.313 39.4678H141.578C141.601 39.8917 141.77 40.2291 142.084 40.4798C142.404 40.726 142.823 40.8491 143.343 40.8491C143.821 40.8491 144.204 40.7533 144.491 40.5619C144.783 40.3658 144.929 40.106 144.929 39.7823Z" fill="white"/>
<path d="M13.1 11.6998C13.1 13.7998 13.1 15.7998 13.1 17.8998C13.1 19.9998 14.6 21.5998 16.6 21.5998C18.6 21.5998 20.1 19.9998 20.1 17.8998C20.1 14.1998 20.1 10.3998 20.1 6.69982C20.1 6.29982 20.1 6.09982 19.6 5.99982C18.3 5.79982 17.4 4.69982 17.3 3.39982C17.2 1.99982 18 0.799822 19.3 0.499822C20.5 0.0998224 21.9 0.699822 22.5 1.79982C23.2001 2.99982 23 4.39982 22 5.29982C21.6 5.69982 21.5 5.99982 21.5 6.49982C21.5 10.2998 21.5 14.0998 21.5 17.9998C21.5 20.5998 19.6 22.7998 17.1 22.9998C14.5 23.2998 12.2001 21.5998 11.7001 18.9998C11.6 18.5998 11.6 18.1998 11.6 17.7998C11.6 13.6998 11.6 9.59982 11.6 5.49982C11.6 2.89982 9.20005 1.19982 6.90005 1.99982C5.50005 2.49982 4.60005 3.79982 4.60005 5.29982C4.60005 9.29982 4.60005 13.2998 4.60005 17.2998C4.60005 17.5998 4.70005 17.7998 4.90005 17.8998C6.00005 18.7998 6.30005 20.1998 5.70005 21.3998C5.10005 22.5998 3.80005 23.1998 2.50005 22.7998C1.20005 22.4998 0.300049 21.2998 0.300049 19.9998C0.300049 18.5998 1.30005 17.4998 2.70005 17.2998C3.10005 17.1998 3.20005 16.9998 3.20005 16.6998C3.20005 12.8998 3.20005 9.09982 3.20005 5.29982C3.20005 2.49982 5.40005 0.399822 8.10005 0.399822C10.8 0.399822 13.1 2.59982 13.1 5.29982C13.1 7.39982 13.1 9.59982 13.1 11.6998Z" fill="white"/>
<path d="M65.3001 11.1998C65.3001 10.4998 65.3001 9.99978 65.3001 9.39978C65.3001 8.69978 65.5001 8.39978 66.0001 8.39978C66.5001 8.39978 66.8001 8.69978 66.8001 9.39978C66.8001 11.5998 66.8001 13.7998 66.8001 15.9998C66.8001 18.0998 66.8001 20.0998 66.8001 22.1998C66.8001 22.4998 66.8001 22.7998 66.5001 23.0998C66.3001 23.2998 66.0001 23.3998 65.7001 23.1998C65.4001 23.0998 65.3001 22.7998 65.3001 22.4998C65.3001 21.8998 65.3001 21.1998 65.3001 20.5998C65.1001 20.5998 65.0001 20.7998 64.9001 20.8998C63.0001 22.9998 60.6001 23.7998 57.9001 22.9998C55.1001 22.1998 53.4001 20.0998 52.9001 17.2998C52.2001 13.5998 54.2001 9.99978 57.5001 8.79978C60.3001 7.89978 62.7001 8.49977 64.7001 10.5998C64.8001 10.6998 65.0001 10.8998 65.3001 11.1998ZM54.2001 15.9998C54.2001 16.3998 54.2001 16.8998 54.4001 17.3998C55.1001 20.2998 58.0001 22.1998 60.7001 21.6998C62.9001 21.1998 64.4001 19.7998 65.0001 17.6998C65.7001 15.3998 65.2001 13.2998 63.6001 11.5998C61.4001 9.29977 57.9001 9.39978 55.8001 11.6998C54.7001 12.7998 54.2001 14.1998 54.2001 15.9998Z" fill="white"/>
<path d="M110.4 16.0997C108.5 16.0997 106.6 16.0997 104.7 16.0997C104.3 16.0997 104.2 16.1997 104.2 16.5997C104.4 18.8997 106.2 20.9997 108.5 21.5997C110.8 22.1997 113.2 21.2997 114.5 19.2997C114.9 18.6997 115.3 18.5997 115.7 18.8997C116.1 19.1997 116.1 19.6997 115.7 20.1997C114.1 22.4997 111.2 23.6997 108.5 23.0997C105.6 22.4997 103.3 20.1997 102.8 17.2997C102.1 13.5997 104.1 9.99972 107.5 8.89972C111.7 7.39972 116.2 10.0997 116.9 14.4997C117.2 16.0997 117.1 16.1997 115.5 16.1997C113.8 16.1997 112.1 16.1997 110.4 16.0997ZM104.3 14.6997C107.9 14.6997 111.5 14.6997 115 14.6997C115.4 14.6997 115.4 14.4997 115.3 14.1997C114.7 11.5997 112.3 9.79972 109.6 9.89972C107 9.99972 104.7 12.0997 104.3 14.6997Z" fill="white"/>
<path d="M90.9 10.9998C90.9 10.3998 90.9 9.79978 90.9 9.19978C90.9 8.69978 91.1 8.39978 91.6 8.39978C92.1 8.39978 92.3 8.69978 92.3 9.19978C92.3 13.5998 92.3 17.9998 92.3 22.3998C92.3 22.8998 92 23.1998 91.6 23.1998C91.1 23.1998 90.9 22.8998 90.9 22.3998C90.9 21.7998 90.9 21.1998 90.9 20.5998C90.7 20.4998 90.6 20.6998 90.5 20.7998C88.6 22.8998 86.3 23.6998 83.6 22.9998C80.8 22.2998 79.1 20.2998 78.5 17.4998C77.6 13.4998 79.8 9.59978 83.5 8.59978C86.2 7.89978 88.4 8.59978 90.3 10.5998C90.5 10.7998 90.6 10.9998 90.9 10.9998ZM85.3 21.7998C85.6 21.7998 85.9 21.7998 86.2 21.6998C88.4 21.1998 89.9 19.7998 90.5 17.6998C91.2 15.4998 90.8 13.3998 89.2 11.6998C87.1 9.39978 83.9 9.29978 81.6 11.3998C80.2 12.6998 79.6 14.3998 79.7 16.1998C79.9 19.1998 82.4 21.7998 85.3 21.7998Z" fill="white"/>
<path d="M121.4 10.5999C122.8 9.09985 124.5 8.39985 126.4 8.49985C129.4 8.69985 132 11.2999 132 14.2999C132 16.9999 132 19.5999 132 22.2999C132 22.8999 131.7 23.2999 131.3 23.2999C130.8 23.2999 130.6 22.8999 130.6 22.2999C130.6 19.7999 130.6 17.2999 130.6 14.7999C130.7 11.8999 128.5 9.89986 126 9.89986C123.4 9.89986 121.4 11.9999 121.4 14.7999C121.4 17.2999 121.4 19.6999 121.4 22.1999C121.4 22.3999 121.4 22.4999 121.4 22.6999C121.3 23.0999 121.1 23.1999 120.7 23.2999C120.3 23.2999 120.1 23.0999 120 22.7999C120 22.6999 120 22.4999 120 22.3999C120 18.0999 120 13.7999 120 9.49985C120 9.39985 120 9.19985 120 9.09985C120.1 8.69985 120.4 8.49985 120.7 8.49985C121.1 8.49985 121.3 8.69985 121.4 9.09985C121.5 9.59985 121.4 9.99985 121.4 10.5999Z" fill="white"/>
<path d="M44.6 8.39988C46.9 8.29988 48.5 8.99988 50 9.99988C50.4 10.2999 50.4 10.6999 50.1 11.0999C49.8 11.3999 49.5 11.4999 49.1 11.1999C48.6 10.8999 48.1 10.4999 47.5 10.1999C46.1 9.49988 44.6 9.49988 43.2 10.1999C42.9 10.2999 42.7 10.4999 42.4 10.7999C41.4 11.7999 41.6 13.0999 42.8 13.7999C43.7 14.2999 44.6 14.5999 45.6 14.6999C46.8 14.8999 47.9 15.1999 48.9 15.7999C51.1 16.9999 51.5 19.6999 49.8 21.4999C47.8 23.4999 45.4 23.5999 42.9 22.6999C41.9 22.3999 41.1 21.7999 40.3 21.1999C39.9 20.8999 39.7 20.5999 40 20.0999C40.3 19.6999 40.8 19.6999 41.2 19.9999C42.3 20.7999 43.4 21.3999 44.7 21.5999C46.2 21.7999 47.5 21.5999 48.7 20.5999C49.8 19.6999 49.9 18.4999 48.8 17.4999C48.1 16.7999 47.2 16.4999 46.2 16.2999C45.3 16.0999 44.5 15.8999 43.6 15.6999C43.1 15.5999 42.6 15.2999 42.1 14.9999C39.6 13.4999 40 10.6999 41.9 9.29988C42.8 8.69988 43.9 8.49988 44.6 8.39988Z" fill="white"/>
<path d="M36.9001 13.4999C36.9001 14.7999 36.9001 15.9999 36.9001 17.2999C36.9001 20.5999 34.2 23.2999 30.8 23.2999C27.6 23.2999 24.8 20.5999 24.8 17.3999C24.8 14.6999 24.8 12.0999 24.8 9.3999C24.8 8.7999 25.1 8.3999 25.5 8.3999C26 8.3999 26.3 8.6999 26.3 9.3999C26.3 11.9999 26.3 14.6999 26.3 17.2999C26.3 19.4999 27.9001 21.3999 30.2001 21.7999C32.3001 22.0999 34.5001 20.7999 35.2001 18.6999C35.4001 18.1999 35.4001 17.5999 35.4001 17.0999C35.4001 14.5999 35.4001 11.9999 35.4001 9.4999C35.4001 8.9999 35.5 8.5999 36.1 8.4999C36.6 8.3999 36.9001 8.7999 36.9001 9.2999C36.9001 10.5999 36.9001 11.9999 36.9001 13.4999Z" fill="white"/>
<path d="M71.9 15.5997C71.9 13.8997 71.9 12.1997 71.9 10.4997C71.9 10.0997 71.8 9.89971 71.4 9.89971C70.9 9.89971 70.5 9.89971 70 9.89971C69.6 9.89971 69.3 9.69971 69.3 9.29971C69.3 8.89971 69.4 8.49971 69.9 8.49971C70.4 8.49971 70.9 8.49971 71.4 8.49971C71.8 8.49971 71.9 8.39971 71.9 7.99971C71.9 6.39971 71.9 4.89971 71.9 3.29971C71.9 2.69971 72.2 2.29971 72.6 2.19971C73.1 2.19971 73.4 2.59971 73.4 3.29971C73.4 4.79971 73.4 6.39971 73.4 7.89971C73.4 8.29971 73.5 8.49971 73.9 8.39971C74.3 8.39971 74.7 8.39971 75.2 8.39971C75.7 8.39971 76 8.5997 76 9.0997C76 9.4997 75.6 9.79971 75.1 9.89971C75.1 9.89971 75.1 9.89971 75 9.89971C74.5 9.89971 73.8 9.69971 73.4 9.99971C73 10.2997 73.3 10.9997 73.3 11.5997C73.3 14.4997 73.3 17.3997 73.3 20.2997C73.3 21.2997 73.5 21.4997 74.5 21.7997C74.9 21.8997 75.2 22.1997 75.2 22.6997C75.1 23.1997 74.8 23.3997 74.3 23.3997C72.9 23.2997 71.9 22.2997 71.9 20.7997C71.9 18.9997 71.9 17.2997 71.9 15.5997Z" fill="white"/>
<path d="M137.4 15.6998C137.4 13.9998 137.4 12.2998 137.4 10.5998C137.4 10.0998 137.3 9.89981 136.8 9.99981C136.4 9.99981 135.9 9.99981 135.5 9.99981C135 9.99981 134.8 9.7998 134.8 9.2998C134.8 8.8998 134.9 8.49981 135.4 8.49981C135.8 8.49981 136.2 8.39981 136.7 8.49981C137.3 8.59981 137.5 8.3998 137.4 7.7998C137.4 6.2998 137.4 4.7998 137.4 3.2998C137.4 2.6998 137.7 2.2998 138.1 2.2998C138.6 2.2998 138.9 2.6998 138.9 3.2998C138.9 4.8998 138.9 6.39981 138.9 7.99981C138.9 8.39981 139 8.59981 139.4 8.49981C139.8 8.49981 140.2 8.49981 140.7 8.49981C141.2 8.49981 141.5 8.7998 141.5 9.2998C141.5 9.7998 141.2 9.99981 140.7 9.99981C140.6 9.99981 140.6 9.99981 140.5 9.99981C140 9.99981 139.3 9.7998 139 10.0998C138.7 10.3998 138.9 10.9998 138.9 11.4998C138.9 14.4998 138.9 17.4998 138.9 20.4998C138.9 21.2998 139.1 21.5998 140 21.7998C140.5 21.8998 140.8 22.1998 140.7 22.6998C140.7 23.0998 140.2 23.3998 139.7 23.3998C138.3 23.2998 137.3 22.2998 137.3 20.7998C137.4 18.9998 137.4 17.2998 137.4 15.6998Z" fill="white"/>
<path d="M97.2001 12.6999C97.2001 9.59985 97.2001 6.39985 97.2001 3.29985C97.2001 3.09985 97.2001 2.99985 97.2001 2.79985C97.3001 2.39985 97.5001 2.09985 97.9001 2.09985C98.3001 2.09985 98.6001 2.29985 98.7001 2.79985C98.7001 2.99985 98.7001 3.19985 98.7001 3.29985C98.7001 9.49985 98.7001 15.7999 98.7001 21.9999C98.7001 22.0999 98.7001 22.2999 98.7001 22.3999C98.7001 22.8999 98.4001 23.1999 97.9001 23.1999C97.4001 23.1999 97.1001 22.8999 97.1001 22.3999C97.1001 22.0999 97.1001 21.7999 97.1001 21.5999C97.2001 18.5999 97.2001 15.6999 97.2001 12.6999Z" fill="white"/>
</svg>
