<svg width="43" height="43" viewBox="0 0 43 43" fill="none" xmlns="http://www.w3.org/2000/svg">
<path d="M24.3385 21.4906C24.3385 25.4759 24.3385 29.2713 24.3385 33.2566C24.3385 37.2418 27.1906 40.2782 30.9935 40.2782C34.7964 40.2782 37.6486 37.2418 37.6486 33.2566C37.6486 26.235 37.6486 19.0236 37.6486 12.0019C37.6486 11.2428 37.6486 10.8633 36.6978 10.6735C34.226 10.294 32.5147 8.20645 32.3245 5.73939C32.1344 3.08256 33.6555 0.805275 36.1274 0.235953C38.4091 -0.523141 41.0712 0.615499 42.212 2.70301C43.543 4.9803 43.1627 7.63713 41.2613 9.34509C40.5007 10.1042 40.3106 10.6735 40.3106 11.6224C40.3106 18.8338 40.3106 26.0452 40.3106 33.4464C40.3106 38.3805 36.6978 42.5555 31.9442 42.935C27.0005 43.5044 22.6272 40.2782 21.6764 35.3441C21.4863 34.585 21.4863 33.8259 21.4863 33.0668C21.4863 25.2861 21.4863 17.5054 21.4863 9.72464C21.4863 4.79052 16.9228 1.56437 12.5495 3.08256C9.8875 4.03143 8.1762 6.49849 8.1762 9.34509C8.1762 16.936 8.1762 24.527 8.1762 32.1179C8.1762 32.6873 8.36635 33.0668 8.74663 33.2566C10.8382 34.9645 11.4087 37.6214 10.2678 39.8987C9.12693 42.176 6.65505 43.3146 4.18317 42.5555C1.7113 41.9862 0 39.7089 0 37.2418C0 34.585 1.90145 32.4975 4.56346 32.1179C5.32404 31.9282 5.51419 31.5486 5.51419 30.9793C5.51419 23.7679 5.51419 16.5565 5.51419 9.34509C5.51419 4.03143 9.69735 0.046179 14.8312 0.046179C19.9651 0.046179 24.3385 4.2212 24.3385 9.34509C24.3385 13.3303 24.3385 17.5054 24.3385 21.4906Z" fill="white"/>
</svg>
