<svg width="34" height="37" viewBox="0 0 34 37" fill="none" xmlns="http://www.w3.org/2000/svg">
<path opacity="0.2" d="M16.6 35.4C25.2156 35.4 32.2 28.4156 32.2 19.8C32.2 11.1843 25.2156 4.19995 16.6 4.19995C7.98436 4.19995 1 11.1843 1 19.8C1 28.4156 7.98436 35.4 16.6 35.4Z" stroke="#F0F5F7" stroke-width="2" stroke-miterlimit="10"/>
<path d="M17.9 27.5L7.7 17.3C7.1 16.7 7.1 15.8 7.7 15.3C8.3 14.7 9.2 14.7 9.7 15.3L17 22.6L27.1 1.79997C27.4 1.09997 28.3 0.799969 29 1.09997C29.7 1.39997 30 2.29997 29.7 2.99997L17.9 27.5Z" fill="#7FC4E2"/>
</svg>
